<svg xmlns="http://www.w3.org/2000/svg" width="1191.719" height="621.946" viewBox="0 0 1191.719 621.946">
    <defs>
        <linearGradient id="linear-gradient" x1="1.209" x2="1.205" y1=".646" y2="-.039" gradientUnits="objectBoundingBox">
            <stop offset="0" stop-color="#26aecb"/>
            <stop offset="1" stop-color="#135766" stop-opacity=".549"/>
        </linearGradient>
        <style>
            .cls-2{fill:url(#linear-gradient)}
        </style>
    </defs>
    <g id="Group_1529" style="isolation:isolate">
        <path id="Path_3564" d="M284.212 52.777a40.088 40.088 0 0 0-2.646-10.115 4.619 4.619 0 0 0-2.329-2.87 4.778 4.778 0 0 0-2.305-.024l-11.868 1.812a4.576 4.576 0 0 0-2.705 1.047c-1.541 1.623-.024 4.246-.071 6.481-.059 2.517-2.294 4.564-4.728 5.246a17.74 17.74 0 0 1-7.5-.094l-16.6-2.576a27.389 27.389 0 0 0 12.55-8.374c2.188-2.588 3.34-7.41.188-8.645a7.7 7.7 0 0 0-2.882-.235c-7.516.059-13.432-6.222-20.465-8.857a22.626 22.626 0 0 0-25.464 7.6l8.833.423a3.939 3.939 0 0 1 2.352.623c1.941 1.588-.47 4.646-.2 7.139.353 3.234 4.658 3.928 7.892 4.258s7.351 2.964 5.787 5.822c-16.29 5.61-32.862-10.962-49.964-8.927-4.328.518-8.421 2.211-12.644 3.282-25.817 6.528-52.5-10.891-78.886-7.21a100.066 100.066 0 0 0-17.219 4.54C59.75 44.3 56 45.567 53.4 48.307s-3.6 7.41-1.129 10.268a57.71 57.71 0 0 1-20.254-1.929 11.356 11.356 0 0 1 5.834 10A120.089 120.089 0 0 0 7.069 76.03a51.419 51.419 0 0 0 6.375 8.48L0 93.179c4.552 1.141 6.9 7.351 4.258 11.221 4.716-2.094 7.633-7.528 12.679-8.621 3.305-.717 6.669.635 9.8 1.905s6.575 2.505 9.821 1.553 5.634-5.163 3.576-7.845a167.879 167.879 0 0 1 42.636-6.657 5.332 5.332 0 0 1 3.23.61c1.882 1.306 1.388 4.117 1.282 6.41s1.682 5.293 3.728 4.258c-2.4 2.082-.353 6.01 1.952 8.2s5.081 5.21 3.67 8.069c-.365.741-.988 1.341-1.353 2.094-1.047 2.211.612 4.8 2.576 6.269s4.364 2.505 5.716 4.54.741 5.61-1.694 5.893l-6.916-8.786a17.9 17.9 0 0 0-4.669 8.857c7.339 6 8.445 18.207 2.294 25.417-3.14 3.693-7.6 5.928-11.5 8.81s-7.5 6.975-7.492 11.821c.012 8.363-.67 16.137 2.47 23.9a369.461 369.461 0 0 0 19.983 41.7c1.976 3.54 4.528 7.41 8.539 8.022Q97 232.32 90.919 213.266c2.635.012 5.693.223 7.233 2.352 1.282 1.776 1.012 4.175 1.4 6.328a19.635 19.635 0 0 0 2.494 5.869l24.17 43.048c2 3.564 4.3 7.4 8.127 8.845 2.446.929 5.281.753 7.539 2.082 1.764 1.047 2.952 2.893 4.752 3.881 5.093 2.776 12.173-2.552 16.925.764 1.364.953 2.223 2.458 3.481 3.54 4.4 3.811 11.609 1.258 16.678 4.093 3.27 1.835 4.964 5.493 6.7 8.81 4.364 8.3 11.432 16.443 20.795 17.1 2.94.212 5.94-.353 8.821.306s5.7 3.164 5.246 6.069c-.788 4.987 1.67 10.456 1.012 15.467-1.212 9.127-14.149 13.138-15.267 22.277-.247 2 .141 4.069-.341 6.022-.588 2.4-2.388 4.352-3.023 6.74-1.211 4.516 2.023 9.021 5.587 12.068s7.8 5.669 9.75 9.927c2.058 4.5 1.047 9.75 1.717 14.655 1.458 10.7 10.7 18.642 20.219 23.759 2.893 1.564 6.01 3.07 7.892 5.775 2.446 3.529 2.2 8.186 3.023 12.4 2 10.327 10.7 18.842 10.95 29.357.176 7.481-3.975 14.255-6.457 21.312a49.754 49.754 0 0 0 4.058 41.225c1.858 3.141 4.081 6.093 5.387 9.492 2.341 6.069 1.588 12.961 3.74 19.1 2.858 8.1 10.715 14.808 9.962 23.371 3.564 7.4 11.432 11.044 19.348 13.244l14.185 3.952c2.717.753 5.552 1.517 8.316.976s5.41-2.846 5.34-5.657c-6.951-1.564-14.138-3.234-19.877-7.48s-9.668-11.785-7.492-18.584c1.012-3.152 3.152-6.786 1.117-9.386-1.164-1.494-3.305-1.882-4.622-3.234-2.058-2.117-1.353-5.681.129-8.233s3.611-4.846 4.211-7.739a8.082 8.082 0 0 0-3.787-8.4 19.972 19.972 0 0 0 7.022-4.5c1.847-2.105 2.705-5.363 1.247-7.763 4.317.553 9.409.811 12.232-2.482 2.258-2.635 2.105-6.575 1.211-9.927s-2.4-6.61-2.446-10.092a184.313 184.313 0 0 0 29.816-1.011 19.311 19.311 0 0 0-9.068-11.35c4.481-.753 8.563-6.128 9.986-10.445s1.059-9.021.176-13.491a7.177 7.177 0 0 1-.129-3.529c.506-1.611 2.082-2.588 3.552-3.434l22.244-12.776a13 13 0 0 0 3.552-2.623c2.329-2.741 1.988-6.869.788-10.268s-3.105-6.587-3.564-10.15c-1.376-10.668 10.045-18.313 13.891-28.358 1.517-3.94 1.823-8.222 2.117-12.432.318-4.517.341-9.774-3.129-12.691-3.329-2.788-8.527-2.164-12.009-4.764-3.187-2.388-4.293-7.01-7.786-8.927-3.164-1.753-7.139-.635-10.656-1.458-6.2-1.447-10.1-8.6-16.443-9.257-3.576-.376-7.622 1.376-10.55-.706-2.576-1.835-2.682-5.516-3.176-8.645a24.151 24.151 0 0 0-19.489-19.56c-3.681-.588-7.692-.365-10.833-2.388-3.176-2.047-4.634-5.893-7.128-8.727-4.022-4.575-10.35-6.2-16.278-7.6l-24.123-5.669c-4.281-1.011-9.8-1.541-12.1 2.211a17.206 17.206 0 0 0-1.435 4.5 13.927 13.927 0 0 1-13.1 9.868 15.464 15.464 0 0 0-9.139-7.069c-2.446-.682-5.057-.753-7.4-1.764a10.39 10.39 0 0 1-4.775-13.891c.082-.176.176-.353.271-.517a12.94 12.94 0 0 0-2.211-15.561c-4.1-3.681-10.033-4.575-15.537-4.2-1.435-3.14.964-6.693 3.564-8.974s5.751-4.528 6.316-7.939c.894-5.363-5.951-9.445-11.15-7.845s-8.516 6.645-10.7 11.621c-1.259 2.858-2.329 5.857-4.317 8.269s-5.175 4.128-8.21 3.364c-4.281-1.094-5.928-6.175-6.881-10.492-1.27-5.787-2.552-11.656-2.282-17.584s2.258-12 6.634-16.008c7.116-6.528 18.031-5.893 27.628-4.846-2.27-2.552-1.706-6.869.717-9.268a10.575 10.575 0 0 1 9.551-2.352 13.151 13.151 0 0 1 7.4 4.422c2.729 3.329 3.5 7.822 5.563 11.6s6.7 7 10.492 4.975c3.282-1.753 3.8-6.293 2.987-9.927s-2.552-7.151-2.258-10.856c.565-7.069 7.892-11.327 14.361-14.232s13.867-6.822 14.89-13.844a12.7 12.7 0 0 1 .765-4.023 7.82 7.82 0 0 1 2.893-2.717c18.866-12.468 38.049-25.1 59.621-31.91 1.117-.353 1.258.035 2.4-.235 1.6-.929.541-3.482-1-4.517s-3.587-1.823-3.975-3.623c-.282-1.329.494-2.635.706-3.975.494-3.305-3.446-6.351-6.516-5.034-1.729-2.294 1.694-4.963 4.469-5.728a121.5 121.5 0 0 1 25.488-4.164 4.617 4.617 0 0 1 2.905.494c1.447 1 1.258 3.305.235 4.74s-2.623 2.329-3.9 3.54a10.656 10.656 0 0 0-2.764 10.715c4.5 2.294 9.4 4.646 14.373 3.834s9.41-6.41 7.069-10.88c-2.176-4.164-8.739-5.1-9.856-9.668-1.317-5.34 6.245-10.092 4.54-15.337-.741-2.294-3.034-3.646-4.787-5.293a14.361 14.361 0 0 1-3.14-15.937 18.112 18.112 0 0 1-15.9-4.975c-3.8-3.834-6.834-9.892-12.244-9.727-4.952.153-9.233 5.94-13.867 4.175-1.141-.435-2.341-1.317-3.446-.8a2.838 2.838 0 0 0-1.282 2.141c-1.176 5.634.847 12.044-2.223 16.913-3.34 5.293-11.068 6.034-15.114 10.809-2.2 2.588-3.046 6.081-5.069 8.821s-6.3 4.469-8.739 2.094a12.048 12.048 0 0 0-3.27-14.643 32.321 32.321 0 0 0-7.222-3.517 42.957 42.957 0 0 1-8.069-4.493 7.99 7.99 0 0 1-2.964-3.164 7.27 7.27 0 0 1 .2-5.011A20.487 20.487 0 0 1 256.877 72.8c3.223-.435 6.986-.282 9.127-2.74 1.129-1.306 1.729-3.27 3.364-3.8a4.879 4.879 0 0 1 3.105.388l12.056 4.246a8.4 8.4 0 0 0 4.293.706 2.912 2.912 0 0 0 2.517-3.058c-.388-2-3.47-2.964-3.187-4.975a3.229 3.229 0 0 1 1.012-1.694 43.05 43.05 0 0 1 34.168-13.491c1.517 2.494-.882 5.457-2.882 7.586s-3.611 5.94-1.188 7.586a6.591 6.591 0 0 0 3.211.717 27.924 27.924 0 0 1 8.539 2.588q6.245 2.717 12.256 5.951c-.353-2.635-.694-5.422.306-7.892s3.846-4.411 6.328-3.446c2.4.929 3.623 4.093 6.175 4.387 3.4.388 4.74-4.634 3.329-7.751s-4.234-5.728-4.469-9.139c-.153-2.305.717-5.163-1.117-6.563a4.981 4.981 0 0 0-2.176-.765l-45.965-8.457c-2.729-.506-6.669-.118-6.8 2.658-.07 1.553 1.317 3.082.706 4.5-.659 1.517-2.8 1.376-4.364 1.917-2.423.835-3.646 3.717-3.411 6.269a17.413 17.413 0 0 0 2.882 7.069c-2.964-1.338-7.492-1.573-10.48-2.82z" class="cls-2" transform="translate(0 4.291)"/>
        <path id="Path_3565" d="M213.051 15.443a14.882 14.882 0 0 0-16.351 4.893c-.753 1-1.388 2.376-.765 3.446.906 1.553 3.223.941 4.928.388a12.415 12.415 0 0 1 7.786-.188c1.6.553 3.035 1.517 4.646 2.047a4.687 4.687 0 0 0 4.775-.694c1.106-1.129 1.176-2.882 1.176-4.458a3.55 3.55 0 0 0-.917-2.94 4.614 4.614 0 0 0-2.117-.623 7.257 7.257 0 0 1-4.258-2.482" class="cls-2" transform="translate(34.476 2.599)"/>
        <path id="Path_3567" d="M274.18 5.6a70.349 70.349 0 0 0-15.69 5.328 11.772 11.772 0 0 1 7.528 11.844 6.166 6.166 0 0 0 .071 2.929c.576 1.4 2.247 1.917 3.717 2.282a24.465 24.465 0 0 0 8.151 1.035A8.268 8.268 0 0 0 284.7 24.9a31.47 31.47 0 0 1 1.4-3.317c3.517-5.363 13.973 1.117 17.748-4.058 1.329-1.823 1.212-4.575 2.94-6.022a6.566 6.566 0 0 1 3.023-1.153A213.369 213.369 0 0 1 332.8 7.084c3.658-.318 8.421-1.635 8.457-5.3a63.638 63.638 0 0 0-40.625 5.469c-4.528 2.27-10.515 7.045-14.879 4.034-1.635-1.129-1.553-4.164-3.8-5.422-2.292-1.31-5.338-.781-7.773-.265z" class="cls-2" transform="translate(45.54 .115)"/>
        <path id="Path_3568" d="M310.471 14.128l6.469 1.247a8.366 8.366 0 0 0-8.715 9.08c6.057 2.023 12.656.059 19.031.318s13.8 4.822 12.714 11.115c-.329 1.905-1.423 3.8-.859 5.646.4 1.294 1.541 2.211 2.188 3.4 1.341 2.482.271 5.622-1.423 7.869s-3.964 4.058-5.457 6.445c-3.693 5.963-1.6 13.667.6 20.324a17.912 17.912 0 0 0 3.446 6.881c3.258 3.47 8.574 3.764 13.338 3.834 3.47.047 7.433-.118 9.621-2.8 2.858-3.505.859-8.974 2.74-13.079 1.705-3.74 6.069-5.34 10.021-6.469 7.233-2.082 14.608-3.858 21.442-7 8.492-3.9 16.431-9.986 25.758-10.492 2.623-.141 5.3.165 7.822-.553s4.916-2.893 4.728-5.516c-.165-2.235-2.058-3.87-3.529-5.563s-2.635-4.27-1.282-6.057l24.464-4.564c-1.729-4.728-3.082-10.95.894-14.02 1.435-1.106 3.364-1.553 4.587-2.893 2.082-2.281 1.031-6.222-1.376-8.174s-5.669-2.4-8.751-2.658C438.216-.445 427.43.143 416.68.731l-63.02 3.458c-4.234.235-9.115-.118-12.985 1.317-3.281 1.223-5.622 3.458-9.374 4.246-6.927 1.47-14.561.494-20.83 4.376z" class="cls-2" transform="translate(54.297 .01)"/>
        <path id="Path_3569" d="M409 56.179a2.6 2.6 0 0 0-1.882.423 2.391 2.391 0 0 0-.612 1.447 9.635 9.635 0 0 0 1.388 6.857 6.752 6.752 0 0 0 6.151 2.952c2.917-.376 5.057-2.858 7.739-4.07 4.128-1.87 21.642-4.775 9.527-11.327-4.175-2.258-6.881-.259-10.162 1.223A23.041 23.041 0 0 1 409 56.179z" class="cls-2" transform="translate(71.594 9.075)"/>
        <path id="Path_3570" d="M499.415 9.491a6.926 6.926 0 0 0-3.364 2.929 2.972 2.972 0 0 0 1.106 3.928 4.392 4.392 0 0 0 1.647.259l5.751.176c2.446.071 5.493.588 6.151 2.952.482 1.753-.6 4 .718 5.246a3.721 3.721 0 0 0 1.952.765 13.4 13.4 0 0 0 5.8.188c4.187-1.117 1.988-3.681 3.305-5.951 2.023-3.481 1.67-1.376 5.222-3.364 2.623-1.47 6.022-4.152 3.823-7.9-3.789-6.544-26.489-2.028-32.111.772z" class="cls-2" transform="translate(87.334 .954)"/>
        <path id="Path_3572" d="M610.192 19.454a62.321 62.321 0 0 0-12.326 9.033c-1.564 1.47-3.176 3.317-3.035 5.457.188 2.858 3.235 4.517 5.869 5.634l10.68 4.522c1.294-1.823.106-4.352-1.235-6.14s-2.929-3.87-2.341-6.034c.67-2.47 3.681-3.305 6.2-3.728 4.1-.694 15.185-.635 13.855-7.257-1.553-7.791-13.538-3.792-17.667-1.487z" class="cls-2" transform="translate(104.795 2.893)"/>
        <path id="Path_3573" d="M606.179 400.808c-1.012 2.94-1.118 6.41.647 8.986 1.976 2.882 5.928 3.964 9.339 3.223a16.846 16.846 0 0 0 8.668-5.575 29.836 29.836 0 0 0 4.987-7.645 59.423 59.423 0 0 0 3.693-13.526l3.317-17.408c.741-3.893.718-15.82-6.445-11.938-1.952 1.059-6.481 9.445-8.527 11.821-3.693 4.281-4.175 8.445-6.116 13.632-2.424 6.492-7.317 11.914-9.563 18.43z" class="cls-2" transform="translate(106.668 62.759)"/>
        <path id="Path_3574" d="M928.785 470.365a53.749 53.749 0 0 1-6.8-3.234 57.494 57.494 0 0 0-3.445 18.769l16.02-9.057c2.411-1.364 5.14-3.258 5.093-6.022a1.889 1.889 0 0 0-.882-1.729 2.133 2.133 0 0 0-1.118-.129c-2.376.2-4.54 1.364-6.775 2.176s-4.858 1.247-6.916.035" class="cls-2" transform="translate(161.827 82.31)"/>
        <path id="Path_3575" d="M1002.967 475.289a35.273 35.273 0 0 0-5.14 1.847c-3.67 1.87-6.175 5.422-9.48 7.88-3.164 2.352-6.975 3.646-10.715 4.9-1.106.976-.6 2.929.6 3.787a7.473 7.473 0 0 0 4.234.953c3.882.082 7.975.118 11.385-1.752a35.982 35.982 0 0 0 5.363-4.258c3.976-3.317 8.763-5.516 13.491-7.622a15.446 15.446 0 0 0 4.7-2.811c2.976-2.929 3.176-7.445-1.106-8.445-3.476-.795-10.039 4.45-13.332 5.521z" class="cls-2" transform="translate(172.13 82.761)"/>
        <path id="Path_3577" d="M984.119 330.134a18.5 18.5 0 0 1-6.634.388c-3.681-.682-6.539-3.446-9.515-5.728a41.938 41.938 0 0 0-24.523-8.563c-8.069-.153-16.219 2.035-24.147.506.518 2.882 2.988 5.046 5.611 6.328s5.528 1.929 8.174 3.187a19.543 19.543 0 0 1 9.456 9.833c.847 1.988 1.388 4.152 2.682 5.881 2.635 3.54 7.633 4.328 12.044 4.034 5.752-.376 11.75-2.035 17.1.106 4.093 1.635 7.022 5.222 10.433 8s8.221 4.846 12.15 2.846a20.064 20.064 0 0 1-13.89-19.325c3.846.353 14.926.212 14.326-6.316-.505-5.529-9.962-1.777-13.267-1.177z" class="cls-2" transform="translate(161.961 55.724)"/>
        <path id="Path_3578" d="M948.834 369.212c.682-3.74 4.422-7.057 3.258-10.68-.8-2.505-3.717-3.74-6.34-3.811s-5.222.717-7.845.8a37.48 37.48 0 0 0-5.14.071c-5.222.859-8.445 6.34-13.373 8.28-3 1.188-6.363.953-9.468 1.776-7.069 1.858-11.538 8.539-16.478 13.926a58.772 58.772 0 0 1-29.848 17.408c-4.022.929-8.339 1.529-11.538 4.14-4.234 3.458-5.269 9.386-6.21 14.761a243.916 243.916 0 0 1-11.872 43.577l16.784 2.141c3.187.412 6.492.812 9.574-.141a27.629 27.629 0 0 0 6.293-3.352 62.952 62.952 0 0 1 24.559-8.868c4.4-.6 9.009-.717 13.126.917s7.668 5.34 8.01 9.762a10.316 10.316 0 0 1 10.3 2.505 17.921 17.921 0 0 1 4.916 9.821c.447 2.294.882 5.046 3.011 6.01 1.741.788 3.728-.059 5.634-.212 6.457-.517 11.809 7.01 18.149 5.716 6.8-1.388 8.468-11.574 15.114-13.62 3.811-1.176 9.162.259 10.986-3.293 1.611-3.129-1.6-6.728-1.271-10.233.412-4.3 5.493-6.14 9.41-7.975 13.5-6.34 19.913-24.512 13.373-37.92-3.881-7.939-11.5-14.2-12.914-22.924-1.082-6.716 1.564-14.549-2.717-19.83-2.176-2.693-5.869-4.175-7.163-7.386-.811-2.023-.482-4.3-.929-6.446s-2.305-4.364-4.411-3.811c-6.116 1.6-8.069 20.489-11.338 25.088-4.997 6.991-15.218 2.391-13.642-6.197z" class="cls-2" transform="translate(146.929 61.716)"/>
        <path id="Path_3579" d="M836.833 334.232c-2.094-.588-4.375-1.164-6.375-.329s-3.176 3.775-1.565 5.234c12.573-.494 25.217-.976 37.685.729 14.361 1.964 28.569 6.845 43 5.41a218.507 218.507 0 0 0-25.088-5.822l-14.126-2.693a111.14 111.14 0 0 0-11.468-1.776c-8.044-.671-14.148 1.458-22.063-.753z" class="cls-2" transform="translate(145.9 58.765)"/>
        <path id="Path_3580" d="M848.035 299.159c-1.047-.082-2.341-.165-2.882.741-.518.859.071 1.988-.2 2.952-.376 1.317-2.094 1.647-3.458 1.47s-2.823-.612-4.022.047a3.415 3.415 0 0 0-1.317 3.87 9.945 9.945 0 0 0 2.329 3.7 37.628 37.628 0 0 0 6.034 6.046c4.317 3.187 10.174 4.728 12.891 9.351a6.318 6.318 0 0 0 1.717 2.317c1.305.823 3.011.2 4.422-.447l4.928-2.258a5.558 5.558 0 0 0 2.305-1.564c1.129-1.529.435-3.7-.506-5.352s-2.152-3.352-1.952-5.234c.365-3.364 4.693-4.658 6.469-7.527 1.8-2.905.623-6.646.835-10.045.247-3.987 2.741-9.162-1.282-12.138-3.423-2.529-6.692-.188-9.151 2.6-5.187 5.884-7.633 12.271-17.16 11.471z" class="cls-2" transform="translate(147.283 50.048)"/>
        <path id="Path_3581" d="M871.817 248.029c1.682 3.223 5.187 5.152 7.033 8.28 1.988 3.4 1.765 7.8 3.917 11.091 2.211 3.387 6.669 5.175 7.916 9.033 1.353 4.2-1.717 9.3.729 12.973a5.453 5.453 0 0 0 7.634 1.035 4.358 4.358 0 0 0 .353-.294 5.847 5.847 0 0 0-.247-8.174c-1.447-1.329-3.54-1.894-4.752-3.446a7.33 7.33 0 0 1-1.235-3 19.7 19.7 0 0 1 .306-9.4 4.1 4.1 0 0 0 .235-2.458c-.541-1.588-2.693-1.694-4.2-2.435-3.423-1.67-3.34-6.5-2.74-10.268-.4 2.505-9.327-1.753-10.257-3.176-1.858-2.823-.847-8.257-1.211-11.374-3.998 1.945-5.54 7.673-3.481 11.613z" class="cls-2" transform="translate(153.435 41.664)"/>
        <path id="Path_3582" d="M796.456 288.9c-1.647-1.847-4.128-3.776-6.339-2.658-1.682.847-2.152 3.176-1.494 4.952a10.922 10.922 0 0 0 3.587 4.281c4.6 3.8 9.562 7.222 13.573 11.632 7.187 7.892 10.986 18.548 18.807 25.817a10.545 10.545 0 0 0 5.916 3.2c2.282.212 4.834-1.247 5.093-3.517.212-1.87-1.094-3.54-2.364-4.928-3.035-3.305-6.363-6.34-9.221-9.786a8.175 8.175 0 0 1-2.352-4.928c-.012-1.859 1.682-3.8 3.482-3.34-2.188-.565-3.811-4.211-7.022-4.893-2.682-.576-3.328 1.094-6.528-.282-6.094-2.614-10.868-10.777-15.138-15.55z" class="cls-2" transform="translate(138.888 50.383)"/>
        <path id="Path_3583" d="M921.806 136.121a49.66 49.66 0 0 1-5.152-1.835c-4.528-1.353-10.515 1.964-9.9 6.657.4 3.117 3.293 5.21 4.893 7.916 2.376 4 1.741 9.08.494 13.561a10.564 10.564 0 0 1-1.717 3.858 13.124 13.124 0 0 1-4.058 2.917 54.1 54.1 0 0 0-15.866 13.479 3.809 3.809 0 0 0-.953 1.811c-.212 1.576 1.377 2.729 2.27 4.058 2 2.929.553 6.869.753 10.421a2.971 2.971 0 0 0 1.235 2.588c1.2.612 2.634-.423 3.282-1.611 2.164-3.917.529-10.221 4.6-12.115.765-.353 1.694-.506 2.211-1.188.812-1.07.024-2.658.435-3.94.623-1.917 3.246-2.011 5.258-1.917a29.977 29.977 0 0 0 10.256-1.364 6.778 6.778 0 0 0 3.4-1.964c1.212-1.517 1.106-3.67.858-5.6a75.732 75.732 0 0 0-8.962-27.346c3.564.459 7.445.847 10.527-1.012 1.729-1.047 3.787-4.152 2.94-6.269-1.323-3.364-3.77-.541-6.804-1.105z" class="cls-2" transform="translate(156.715 23.616)"/>
        <path id="Path_3584" d="M550.078 184.469c.423 2.294.847 4.7.094 6.9s-3.117 4.046-5.34 3.376c-1.729-.529-2.729-2.258-3.952-3.587-6.834-7.375-22.242-3.105-26.464-12.232-1.717-3.729-.553-8.186-1.729-12.115a10.791 10.791 0 0 0-10.927-7.422 22.13 22.13 0 0 0-6.281 1.882 158.41 158.41 0 0 1-41.637 10.409 34.224 34.224 0 0 0-8 1.458c-5.869 2.129-9.88 7.563-12.726 13.114s-4.964 11.562-8.786 16.49c-4.022 5.187-9.656 8.81-14.9 12.738a15.263 15.263 0 0 0-4.917 5.152c-1.141 2.341-1.07 5.058-.988 7.657l1.07 31.569c.141 4.058.306 8.269 2.129 11.9 2.27 4.54 6.751 7.516 9.868 11.515a22.583 22.583 0 0 1 4.681 14.408c-.071 2.094-.271 4.564 1.353 5.869a5.868 5.868 0 0 0 3.329.953L468.663 308c7.516.612 15.843 1.623 20.748 7.351 2.317 2.705 4.175 6.586 7.716 6.881 1.517.129 3-.506 4.516-.623 3.834-.306 7.21 2.611 9.339 5.822a25.764 25.764 0 0 1 4.14 16.561c-.353 3.658-1.482 7.222-1.729 10.891-.929 13.961 10.9 26.088 11.127 40.072.129 8.233-3.775 15.914-7.575 23.206 6.151 9.315 1.117 21.712 3.564 32.592 2.317 10.327 10.927 18.407 13.079 28.769.988 4.74 1.035 10.586 5.222 13.032a11.921 11.921 0 0 0 5.9 1.188 77.983 77.983 0 0 0 35.485-8.08c5.175-2.564 10.538-6.4 11.444-12.1.729-4.6-1.6-9.751.765-13.75 2.8-4.728 9.962-4.352 14.079-7.974 6.681-5.893 1.47-17.125 4.175-25.605 2.435-7.622 10.809-11.679 14.961-18.525a32.436 32.436 0 0 0 3.47-9.421 134.6 134.6 0 0 0 3.54-24.029 143.287 143.287 0 0 1 1.082-14.714c4.469-27.8 31.957-46.424 40.884-73.123.847-2.552 1.247-5.951-1.011-7.386a6.433 6.433 0 0 0-4.317-.447l-19.689 2.482c-2.446.306-5.034.6-7.281-.423s-3.858-3.858-2.67-6.01c3.341-6.057-3.54-13.714-6.586-19.913a294.967 294.967 0 0 0-29.263-47.471 4.858 4.858 0 0 1-1.282-2.787l5.587.188c-1.882-6.763-5-14.173-11.574-16.655-3.705-1.4-7.81-.917-11.762-.694-11.322.61-23.46-1.105-34.669-2.836z" class="cls-2" transform="translate(71.085 28.09)"/>
        <path id="Path_3585" d="M579.327 57.9c2.964 3.152 6.281 6.481 10.574 7.034 7.575.964 13.02-6.857 16.478-13.667a6.672 6.672 0 0 0 6.963 6.175 13.723 13.723 0 0 0 5.234-2.047 103.324 103.324 0 0 1 48.906-12.644 5.288 5.288 0 0 1 4.034-5.81c3.481-.694 6.61 2.317 8.28 5.434s2.717 6.74 5.387 9.08 7.821 2.235 8.88-1.153c1.011-3.246-2.376-6.022-5.187-7.939s-5.775-5.457-3.881-8.292c14.361-3.176 28.816-6.375 43.519-7a18.341 18.341 0 0 0 7.328-1.259c2.247-1.106 4.022-3.6 3.423-6.022a16.587 16.587 0 0 1-17.313-6.528c20.395-1.682 42.1-3.117 60.161 6.481 2.164 4.658-8.892 8.527-5.928 12.726.941 1.341 2.834 1.494 4.47 1.529 12.561.235 25.194.459 37.614-1.435 4.54-.694 9.127-1.67 13.679-1.106 7.586.941 14.079 6 21.548 7.657 3.034.67 6.445.694 9.009-1.07s3.658-5.787 1.565-8.092c7.034-6.892 18.7-5.187 27.969-1.882s18.066 8.621 27.876 9.351c7.033.529 14.173-1.364 21.136-.165 4.375.753 8.433 2.705 12.714 3.893 8.08 2.258 16.631 1.788 25.018 1.894a175.433 175.433 0 0 1 62.466 12.409 18.553 18.553 0 0 1 6.94 4.1c1.847 1.976 2.8 5.058 1.553 7.469l-20.548-3c1.941 3.811 6.951 4.458 11.009 5.775s8.28 5.81 5.846 9.315c-4.411-1.4-8.4 3-10.633 7.057s-4.94 8.915-9.562 9.162c-4.14.223-9.139-3.305-11.832-.153a80.826 80.826 0 0 1 9.515 15.208c2.658 5.552 4.564 12.538.964 17.537a4.517 4.517 0 0 1-2.435 1.882c-2.94.741-4.846-2.858-6.963-5.034-2.658-2.752-6.681-3.529-10.268-4.811s-7.387-3.823-7.669-7.633c-.176-2.376 1.082-4.575 2-6.763a26.012 26.012 0 0 0 1.976-11.691c-.2-3.223-1.106-6.563-3.411-8.81s-6.3-2.964-8.774-.906c-1.153.964-2.082 2.493-3.587 2.552-2.658.106-4.693-4.528-6.833-2.952a7.263 7.263 0 0 1-.988 4.858c-6.375 5.54-16.172 3.2-24.394 5.163a45.917 45.917 0 0 0-11.127 4.858 7.034 7.034 0 0 0-3.175 2.67c-1.023 2 .106 4.552 1.917 5.869a15.081 15.081 0 0 0 6.3 2.152c10.021 1.894 20.183 4.834 28.1 11.268s13.1 17.078 10.6 26.958l-19.76-18.878q1.129 11.891 1.282 23.853a10.7 10.7 0 0 1-.623 4.587c-1.411 3.117-5.222 4.164-8.574 4.846a6.71 6.71 0 0 0-5.34 7.845 5.445 5.445 0 0 0 .188.753c1.188 3.87 4.152 6.892 6.869 9.9s5.387 6.434 5.74 10.468-2.693 8.586-6.74 8.3c-3.07-.212-5.34-2.952-6.645-5.74s-2.082-5.881-4.046-8.245c-5.94-7.151-19.3-4.081-24.629-11.715A12.044 12.044 0 0 0 921 185.008c2.482-1.553 5.869-.106 7.727 2.141s2.741 5.14 4.2 7.68c1.976 3.411 5.116 6.445 5.386 10.374a35.539 35.539 0 0 0 .071 4.469c.494 2.388 2.505 4.093 3.9 6.093 3.246 4.634 3.094 11.009 1 16.267s-5.857 9.656-9.586 13.926c-6.516 7.445-13.162 14.843-20.877 21.03-2.2 1.764-4.552 3.493-5.928 5.963s-1.447 5.928.67 7.81c-1.506.071-4.211.823-5.728.894a132.582 132.582 0 0 1-.341-18.207c-5.951-2.858-12.361 4.8-11.6 11.362s5.517 11.821 8.892 17.5c2.47 4.152 4.3 8.986 3.481 13.75s-5.069 9.151-9.88 8.727c-7.657-.67-10.856-11.656-18.431-12.914a3.165 3.165 0 0 0-2 .2c-1.129.612-1.317 2.117-1.388 3.4-.306 6.293-.576 12.832 1.882 18.631 3.587 8.48 12.879 15.608 10.927 24.617-10.492-4.881-15.937-16.643-18.419-27.934s-2.893-23.159-7.328-33.839c-3.376 4.317-10.456.753-13.538-3.787-2.917-4.293-4.716-9.268-7.551-13.62s-7.175-8.257-12.362-8.492c-5.446-.247-10.162 3.481-14.3 7.01-3.411 2.905-6.916 5.916-8.915 9.927-2.905 5.834-2.141 12.715-2.282 19.231-.153 7.045-1.647 14.479-6.445 19.63s-13.667 6.951-18.96 2.305c-2.764-2.423-4.1-6.046-5.293-9.527a465.131 465.131 0 0 1-14.338-51.176c-.894 3.952-4.363 9.045-7.68 6.716a6.7 6.7 0 0 1-1.764-2.282c-6.187-10.48-17.643-16.772-29.2-20.536s-23.747-5.528-35.191-9.668a89.03 89.03 0 0 1-18.254-9.092 14.389 14.389 0 0 0-.882 14.691c2.54 4.493 8.28 7.092 13.2 5.528 2.541-.812 4.681-2.576 7.21-3.446s5.9-.447 7.01 1.988c1.058 2.329-.541 5.14.247 7.563 1.2 3.693 6.786 3.987 8.727 7.351 1.447 2.505.259 5.822-1.811 7.845s-4.834 3.129-7.363 4.54c-8.21 4.564-14.044 12.35-21.207 18.407s-17.29 10.48-25.829 6.6c2.035-10.315-10.256-17.89-12.514-28.158-.741-3.376-.353-6.975-1.423-10.268-1.541-4.764-5.763-8.045-9.245-11.656a45.752 45.752 0 0 1-12.55-33.3c.188-4.246.964-8.563 0-12.691s-4.387-8.139-8.633-7.951c-9.691.423-21.9 1.153-26.993-7.116-1.811-2.952-2.6-7.269.024-9.527 1.846-1.6 4.587-1.447 7.01-1.2l21.842 2.152c5.1.506 10.633.917 15.008-1.752s6.281-9.762 2.223-12.9c-2.964-2.294-8.28-2.176-9.139-5.822-.717-3.035 2.646-6.493.835-9.033-1.305-1.823-4.234-1.317-6.01.047s-3.058 3.364-5.046 4.4c-3.481 1.811-7.645.082-11.4-1.082s-8.774-1.27-10.6 2.211c-2.035 3.893 1.8 9-.212 12.9-2.67 5.163-11.7 2.223-15.455 6.657-4.3 5.093 2.929 12.691 1.482 19.2a11.957 11.957 0 0 1-11.774-.659 11.435 11.435 0 0 1-4.94-10.644c.365-2.929 1.882-5.916.858-8.68-.823-2.235-3.07-3.564-5.163-4.717l-21.218-11.726c-1.976 3.658.518 8.186 3.634 10.927s7.022 4.811 9.068 8.421a11.073 11.073 0 0 1-4.164 14.585 2.568 2.568 0 0 1-2.105.365 2.922 2.922 0 0 1-1.364-1.835c-3.741-9.586-9.362-19.031-18.36-24.041s-21.9-3.975-27.793 4.458c-1.4 2-2.341 4.281-3.564 6.4-6.481 11.256-20.371 16.572-33.345 16.231a6.551 6.551 0 0 1-3.634-.859c-2.094-1.447-2-4.528-1.682-7.057l1.363-10.734c.27-2.152.67-4.54 2.376-5.881 2.4-1.894 5.869-.694 8.939-.741a11.327 11.327 0 0 0 10.28-7.927 12.765 12.765 0 0 0-3.552-12.691c-1.4-1.317-3.282-2.976-2.54-4.752a3.952 3.952 0 0 1 2.752-1.858c5.5-1.6 11.315-2.011 16.725-3.9s10.656-5.74 11.938-11.327c.388-1.705.576-3.787 2.105-4.634a6.214 6.214 0 0 1 2.435-.494 11.843 11.843 0 0 0 10.162-12.367c2.588-1.811 6.222-.482 8.727 1.447s4.716 4.469 7.775 5.3c5.681 1.553 11.185-3.481 17.078-3.505 2.482-.012 5.046.87 7.375.023 2.364-.847 3.776-3.2 5.587-4.94s5-2.8 6.669-.929l-1.423-10.562a20.756 20.756 0 0 0 16.9-3.058l-18.431-6.234a4.168 4.168 0 0 1-1.729-.917c-1.341-1.447-.012-3.693 1.082-5.328 2.611-3.928 3.046-10.386-1.247-12.338-2.929-1.329-6.281.271-9.092 1.835l-13.455 7.5c-.423 2.552 2.705 4.011 4.634 5.728a7.775 7.775 0 0 1-5.069 13.585 9.644 9.644 0 0 1 1.729 8.21l-9.057.647a3.941 3.941 0 0 1-2.94-.576c-.964-.859-.835-2.364-1.059-3.646-.541-3.082-3.552-5.234-6.634-5.787s-6.222.153-9.268.859a5.489 5.489 0 0 1-3.987-.094 3.983 3.983 0 0 1-1.576-1.988c-1.341-3.234-.082-7.045 2.058-9.809s5.081-4.8 7.716-7.092a44.923 44.923 0 0 0 13.373-20.748c4.987-2.094 10.139-4.928 15.126-7.01a46.233 46.233 0 0 1 24.876-4.822l16.878.318c5 .094 10.127.223 14.749 2.117s8.68 6.022 9 11.009a3.369 3.369 0 0 1-1.082 3.093 4.052 4.052 0 0 1-2.129.482c-4.681.183-6.669 1.336-11.327 1.502z" class="cls-2" transform="translate(76.522 2.133)"/>
        <path id="Path_3586" d="M445.35 96.836a4.936 4.936 0 0 0 1.341-4.963 9.231 9.231 0 0 0-9.562 1.811 16.351 16.351 0 0 0-2.564 3.387c-2.223 3.623-4.175 7.939-2.893 11.985a3.412 3.412 0 0 0 1.552 2.129 3.994 3.994 0 0 0 1.812.282 60.57 60.57 0 0 0 7.3-.447c1.494-.176 3.223-.6 3.8-1.988.753-1.823-1.07-3.881-.541-5.775a6.307 6.307 0 0 1 1.564-2.235 2.933 2.933 0 0 0 .918-2.482c-.212-.894-1.576-1.4-2.07-.623" class="cls-2" transform="translate(75.979 16.089)"/>
        <path id="Path_3587" d="M455.386 82.117a20.562 20.562 0 0 0-6.622-.412 2.923 2.923 0 0 0-1.411.318 2.322 2.322 0 0 0-.87 1.259 6.256 6.256 0 0 0 3.646 7.669 8.187 8.187 0 0 1 2.258.906c1.87 1.458.682 4.422 1.035 6.763.4 2.635 2.94 4.846 2.482 7.457-.365 2.07-2.576 3.7-2.223 5.763.376 2.164 3.117 2.811 5.3 2.988a6.658 6.658 0 0 0 3.764-.435 5.831 5.831 0 0 0 2.376-3.434 22.043 22.043 0 0 0 1.106-8.292 7.76 7.76 0 0 0-.941-3.658A20.113 20.113 0 0 0 463.1 96.5c-4.185-4.868.237-12.148-7.714-14.383z" class="cls-2" transform="translate(78.611 14.388)"/>
    </g>
</svg>
